<svg width="50" height="50" viewBox="0 0 50 50" fill="none" xmlns="http://www.w3.org/2000/svg">
<path fill-rule="evenodd" clip-rule="evenodd" d="M41.6667 18.7501C42.8173 18.7501 43.75 19.6828 43.75 20.8334V29.1667C43.75 34.9197 35.3553 39.5834 25 39.5834C14.6447 39.5834 6.25 34.9197 6.25 29.1667V20.8334C6.25 19.6828 7.18274 18.7501 8.33333 18.7501H41.6667ZM9.375 29.1667C9.375 29.8451 9.66224 30.6872 10.4167 31.5837V27.0834H13.5417V33.9499C14.4643 34.4373 15.5128 34.872 16.6667 35.2377V29.1667H19.7917V36.0047C20.787 36.183 21.8316 36.3117 22.9167 36.3852V29.1667H26.0417V36.4381C27.1215 36.402 28.166 36.3117 29.1667 36.1715V29.1667H32.2917V35.5449C33.4256 35.2429 34.4723 34.8729 35.4167 34.4544V27.0834H38.5417V32.599C40.0887 31.3377 40.625 30.0968 40.625 29.1667V21.8751H9.375V29.1667Z" fill="black"/>
<path d="M43.75 20.8334C43.75 26.5864 35.3553 31.2501 25 31.2501C14.6447 31.2501 6.25 26.5864 6.25 20.8334C6.25 15.0804 14.6447 10.4167 25 10.4167C35.3553 10.4167 43.75 15.0804 43.75 20.8334Z" fill="white"/>
<path d="M40.625 20.8334C40.625 19.6072 39.6939 17.8393 36.7411 16.1988C33.8941 14.6172 29.7488 13.5417 25 13.5417C20.2512 13.5417 16.1059 14.6172 13.2589 16.1988C10.3061 17.8393 9.375 19.6072 9.375 20.8334C9.375 22.0597 10.3061 23.8276 13.2589 25.468C16.1059 27.0497 20.2512 28.1251 25 28.1251V31.2501C14.6447 31.2501 6.25 26.5864 6.25 20.8334C6.25 15.0804 14.6447 10.4167 25 10.4167C35.3553 10.4167 43.75 15.0804 43.75 20.8334C43.75 26.5864 35.3553 31.2501 25 31.2501V28.1251C29.7488 28.1251 33.8941 27.0497 36.7411 25.468C39.6939 23.8276 40.625 22.0597 40.625 20.8334Z" fill="black"/>
<ellipse cx="25" cy="20.5" rx="16" ry="8.5" fill="black"/>
</svg>
