<svg width="140" height="140" viewBox="0 0 140 140" fill="none" xmlns="http://www.w3.org/2000/svg">
<rect x="0.5" y="0.5" width="139" height="139" rx="1.5" fill="#f5f5f5"/>
<rect x="58.75" y="58.75" width="22.5" height="22.5" fill="#9E9E9E"/>
<path d="M70.6543 76.3838L74.8389 71.1475L78 75.1035V79H62V74.7734L65.7969 69.0137L70.6543 76.3838ZM73.8896 63.833C75.2702 63.833 76.3894 64.9525 76.3896 66.333C76.3896 67.7137 75.2704 68.833 73.8896 68.833C72.509 68.8329 71.3896 67.7137 71.3896 66.333C71.3899 64.9525 72.5091 63.8331 73.8896 63.833Z" fill="white"/>
<path d="M58.75 79.375H81.25V81.25H58.75V79.375Z" fill="#9E9E9E"/>
<path d="M79.375 81.25V58.75L81.25 58.75V81.25H79.375Z" fill="#9E9E9E"/>
<path d="M58.75 81.25L58.75 58.75L60.625 58.75L60.625 81.25H58.75Z" fill="#9E9E9E"/>
</svg>
