<svg width="40" height="40" viewBox="0 0 40 40" fill="none" xmlns="http://www.w3.org/2000/svg">
<rect width="40" height="40" rx="2" fill="#FAFAFA"/>
<rect x="10.25" y="10.25" width="19.5" height="19.5" fill="#9E9E9E"/>
<path d="M20.5664 25.5322L24.1934 20.9941L28 25.7588V29H12V25.7559L16.3574 19.1455L20.5664 25.5322ZM23.3711 14.6553C24.5677 14.6553 25.5381 15.6257 25.5381 16.8223C25.5381 18.0189 24.5677 18.9893 23.3711 18.9893C22.1745 18.9892 21.2041 18.0189 21.2041 16.8223C21.2041 15.6257 22.1745 14.6553 23.3711 14.6553Z" fill="white"/>
<path d="M10.25 28.125H29.75V29.75H10.25V28.125Z" fill="#9E9E9E"/>
<path d="M28.125 29.75V10.25L29.75 10.25V29.75H28.125Z" fill="#9E9E9E"/>
<path d="M10.25 29.75L10.25 10.25L11.875 10.25L11.875 29.75H10.25Z" fill="#9E9E9E"/>
</svg>
