<svg width="19" height="19" viewBox="0 0 19 19" fill="none" xmlns="http://www.w3.org/2000/svg">
<path d="M2.56282 2.56282C5.9799 -0.854272 11.5207 -0.854272 14.9378 2.56282C18.1424 5.76741 18.3405 10.8389 15.5345 14.2757L18.5218 17.263L17.4603 18.3236L14.4886 15.3519C11.0513 18.3458 5.83475 18.2097 2.56282 14.9378C-0.854272 11.5207 -0.854272 5.9799 2.56282 2.56282ZM13.8773 3.62336C11.046 0.792061 6.45466 0.792062 3.62336 3.62336C0.792061 6.45466 0.792061 11.046 3.62336 13.8773C6.45466 16.7086 11.046 16.7086 13.8773 13.8773C16.7086 11.046 16.7086 6.45466 13.8773 3.62336Z" fill="black"/>
</svg>

