<?xml version="1.0" encoding="UTF-8"?>
<svg id="Layer_1" data-name="Layer 1" xmlns="http://www.w3.org/2000/svg" width="20" height="20" viewBox="0 0 20 20">
  <rect width="20" height="20" rx=".8" ry=".8" style="fill: #f5f5f5;"/>
  <g>
    <path d="M11.16,10.47c-.09,0-.17.07-.17.17v.49h-1.97v-.49c0-.09-.07-.17-.17-.17s-.17.07-.17.17v.65c0,.09.07.17.17.17h2.3c.09,0,.17-.07.17-.17v-.65c0-.09-.07-.17-.17-.17h0Z" style="fill: #9e9e9e;"/>
    <path d="M9.29,9.73l.54-.54v1.52c0,.09.07.15.17.15s.17-.07.17-.15v-1.53l.54.55s.07.05.12.05.09-.02.12-.05c.07-.06.07-.17,0-.23l-.94-.95-.96.95c-.07.06-.07.17,0,.23.06.07.17.07.23,0h0Z" style="fill: #9e9e9e;"/>
  </g>
</svg>