<svg width="16" height="16" viewBox="0 0 16 16" fill="none" xmlns="http://www.w3.org/2000/svg">
<path d="M9.28744 3.03385V2.90934C9.28744 1.99303 8.54439 1.25007 7.62809 1.25C6.71173 1.25 5.96875 1.99298 5.96875 2.90934V3.03385C5.96875 3.95021 6.71173 4.6932 7.62809 4.6932V5.9432L7.47835 5.93994C5.99065 5.86459 4.79809 4.67131 4.72282 3.18359L4.71875 3.03385V2.90934C4.71875 1.30263 6.02138 0 7.62809 0L7.77783 0.00406901C9.31489 0.0820735 10.5374 1.3529 10.5374 2.90934V3.03385L10.5334 3.18359C10.4556 4.72083 9.18464 5.94313 7.62809 5.9432V4.6932C8.54439 4.69313 9.28744 3.95017 9.28744 3.03385Z" fill="black"/>
<path d="M14.0007 10.3398C14.0007 9.30431 13.1612 8.46484 12.1257 8.46484H3.125C2.08947 8.46484 1.25 9.30431 1.25 10.3398V15.4334H0V10.3398C0 8.61395 1.39911 7.21484 3.125 7.21484H12.1257C13.8515 7.21484 15.2507 8.61395 15.2507 10.3398V15.4334H14.0007V10.3398Z" fill="black"/>
</svg>
