<svg width="24" height="24" viewBox="0 0 24 24" fill="none" xmlns="http://www.w3.org/2000/svg">
<path d="M8.57933 6.12017C8.57933 4.23987 10.1036 2.71558 11.9839 2.71558C13.8642 2.71558 15.3885 4.23987 15.3885 6.12017V6.26641C15.3885 8.14672 13.8642 9.67101 11.9839 9.67101C10.1036 9.67101 8.57933 8.14672 8.57933 6.26641V6.12017Z" fill="black"/>
<path d="M3.70117 15.0827C3.70117 13.1463 5.27097 11.5765 7.20742 11.5765H16.9957C18.9322 11.5765 20.502 13.1463 20.502 15.0827V20.7644H3.70117V15.0827Z" fill="black"/>
<path d="M19.6504 15.1739C19.6504 13.9312 18.643 12.9239 17.4004 12.9239H6.59961C5.35697 12.9239 4.34961 13.9312 4.34961 15.1739V21.2862H2.84961V15.1739C2.84961 13.1028 4.52854 11.4239 6.59961 11.4239H17.4004C19.4715 11.4239 21.1504 13.1028 21.1504 15.1739V21.2862H19.6504V15.1739Z" fill="black"/>
<path d="M3.99219 19.5506H19.9023V21.285H3.99219V19.5506Z" fill="black"/>
</svg>
