<svg width="24" height="24" viewBox="0 0 24 24" fill="none" xmlns="http://www.w3.org/2000/svg">
<path d="M13.9922 6.38037V6.23096C13.9922 5.13138 13.1005 4.23983 12.001 4.23975C10.9013 4.23975 10.0098 5.13133 10.0098 6.23096V6.38037C10.0098 7.48 10.9013 8.37158 12.001 8.37158V9.87158L11.8213 9.86768C10.0361 9.77725 8.60498 8.34532 8.51465 6.56006L8.50977 6.38037V6.23096C8.50977 4.3029 10.0729 2.73975 12.001 2.73975L12.1807 2.74463C14.0251 2.83823 15.4922 4.36322 15.4922 6.23096V6.38037L15.4873 6.56006C15.394 8.40474 13.8688 9.8715 12.001 9.87158V8.37158C13.1005 8.3715 13.9922 7.47995 13.9922 6.38037Z" fill="black"/>
<path d="M19.6504 15.1479C19.6504 13.9053 18.643 12.8979 17.4004 12.8979H6.59961C5.35697 12.8979 4.34961 13.9053 4.34961 15.1479V21.2603H2.84961V15.1479C2.84961 13.0769 4.52854 11.3979 6.59961 11.3979H17.4004C19.4715 11.3979 21.1504 13.0769 21.1504 15.1479V21.2603H19.6504V15.1479Z" fill="black"/>
</svg>
