<svg width="70" height="98" viewBox="0 0 70 98" xmlns="http://www.w3.org/2000/svg">
  <path
    d="M1.36637 27.809C1.36637 11.5365 15.4027 0 35.1529 0C54.9031 0 67.3247 10.6864 67.3247 27.6876H47.326C47.326 21.3729 42.4816 17.4869 34.9045 17.4869C26.7063 17.4869 21.4892 21.13 21.4892 27.0804C21.4892 32.545 24.3462 35.2166 30.8054 36.5524L44.5933 39.3455C60.9897 42.6243 68.8153 50.2748 68.8153 64.4829C68.8153 81.8483 54.9031 93.1419 33.7866 93.1419C13.291 93.1419 0 82.3341 0 65.4544H19.9987C19.9987 72.0119 24.9673 75.6551 33.9108 75.6551C42.9785 75.6551 48.6924 72.1334 48.6924 66.4259C48.6924 61.447 46.3323 58.8968 40.2457 57.6824L26.2094 54.8894C9.81301 51.6106 1.36637 42.5028 1.36637 27.809Z"
    fill="#000000" 
  />
</svg>
