<svg width="345" height="98" viewBox="0 0 345 98" fill="none" xmlns="http://www.w3.org/2000/svg">
<path d="M300.18 91.5633H281.051V0H300.18V52.7035L320.303 30.8449H344.277L320.924 54.8894L343.531 91.5633H321.421L307.509 68.8546L300.18 76.3837V91.5633Z" fill="white"/>
<path d="M217.962 84.643C205.768 70.2341 207.203 51.7363 221.559 40.1247C235.723 28.6678 251.516 28.6603 262.846 40.1431L248.012 52.1419C243 48.3152 238.133 48.4694 233.06 52.5722C226.84 57.6039 226.7 65.4398 232.797 72.6443C239.131 80.1295 246.586 81.508 252.902 76.3989C258.07 72.2187 259.249 67.325 256.326 61.9662L271.16 49.9675C280.18 62.5307 277.228 78.4733 263.829 89.3108C248.708 101.542 230.632 99.6134 217.962 84.643Z" fill="white"/>
<path d="M166.426 93.1416C153.259 93.1416 145.061 85.6125 145.061 73.7117C145.061 62.5396 153.135 55.6177 168.041 54.5247L185.431 53.1889V52.2174C185.431 46.267 181.704 43.1097 174.873 43.1097C166.799 43.1097 162.451 46.1456 162.451 51.6103H146.551C146.551 37.8879 158.103 28.9016 175.866 28.9016C193.877 28.9016 204.063 38.738 204.063 56.1034V91.5629H187.17L185.928 83.5481C183.94 89.1342 175.742 93.1416 166.426 93.1416ZM173.133 79.2978C180.462 79.2978 185.555 75.7762 185.555 68.8543V65.5755L175.866 66.4255C167.544 67.1542 164.563 68.9757 164.563 72.8617C164.563 77.2334 167.295 79.2978 173.133 79.2978Z" fill="white"/>
<path d="M1.36637 27.809C1.36637 11.5365 15.4027 0 35.1529 0C54.9031 0 67.3247 10.6864 67.3247 27.6876H47.326C47.326 21.3729 42.4816 17.4869 34.9045 17.4869C26.7063 17.4869 21.4892 21.13 21.4892 27.0804C21.4892 32.545 24.3462 35.2166 30.8054 36.5524L44.5933 39.3455C60.9897 42.6243 68.8153 50.2748 68.8153 64.4829C68.8153 81.8483 54.9031 93.1419 33.7866 93.1419C13.291 93.1419 0 82.3341 0 65.4544H19.9987C19.9987 72.0119 24.9673 75.6551 33.9108 75.6551C42.9785 75.6551 48.6924 72.1334 48.6924 66.4259C48.6924 61.447 46.3323 58.8968 40.2457 57.6824L26.2094 54.8894C9.81301 51.6106 1.36637 42.5028 1.36637 27.809Z" fill="white"/>
<path d="M95.1953 95.9642H76.0662V35.2459H94.0774L95.3195 41.5606C99.1702 36.3388 106.25 33.3029 114.324 33.3029C129.106 33.3029 137.677 42.5321 137.677 58.4403V95.9642H118.548V62.9334C118.548 55.2829 114.2 50.304 107.617 50.304C100.04 50.304 95.1953 55.1615 95.1953 62.6906V95.9642Z" fill="white"/>
</svg>
