<svg width="490.99" height="98" viewBox="0 0 490.99 98" xmlns="http://www.w3.org/2000/svg">
  <path d="M300.18,91.56h-19.13V0h19.13v52.7l20.12-21.86h23.97l-23.35,24.04,22.61,36.67h-22.11l-13.91-22.71-7.33,7.53v15.18Z" fill="#000000"/>
  <path d="M217.96,84.64c-12.19-14.41-10.76-32.91,3.6-44.52,14.16-11.46,29.96-11.46,41.29.02l-14.83,12c-5.01-3.83-9.88-3.67-14.95.43-6.22,5.03-6.36,12.87-.26,20.07,6.33,7.49,13.79,8.86,20.1,3.75,5.17-4.18,6.35-9.07,3.42-14.43l14.83-12c9.02,12.56,6.07,28.51-7.33,39.34-15.12,12.23-33.2,10.3-45.87-4.67Z" fill="#000000"/>
  <path d="M166.43,93.14c-13.17,0-21.36-7.53-21.36-19.43,0-11.17,8.07-18.09,22.98-19.19l17.39-1.34v-.97c0-5.95-3.73-9.11-10.56-9.11-8.07,0-12.42,3.04-12.42,8.5h-15.9c0-13.72,11.55-22.71,29.32-22.71s28.2,9.84,28.2,27.2v35.46h-16.89l-1.24-8.01c-1.99,5.59-10.19,9.59-19.5,9.59ZM173.13,79.3c7.33,0,12.42-3.52,12.42-10.44v-3.28l-9.69.85c-8.32.73-11.3,2.55-11.3,6.44,0,4.37,2.73,6.44,8.57,6.44Z" fill="#000000"/>
  <path d="M1.37,27.81C1.37,11.54,15.4,0,35.15,0s32.17,10.69,32.17,27.69h-20c0-6.31-4.84-10.2-12.42-10.2-8.2,0-13.42,3.64-13.42,9.59,0,5.46,2.86,8.14,9.32,9.47l13.79,2.79c16.4,3.28,24.22,10.93,24.22,25.14,0,17.37-13.91,28.66-35.03,28.66S0,82.33,0,65.45h20c0,6.56,4.97,10.2,13.91,10.2s14.78-3.52,14.78-9.23c0-4.98-2.36-7.53-8.45-8.74l-14.04-2.79C9.81,51.61,1.37,42.5,1.37,27.81Z" fill="#000000"/>
  <path d="M95.2,95.96h-19.13v-60.72h18.01l1.24,6.31c3.85-5.22,10.93-8.26,19-8.26,14.78,0,23.35,9.23,23.35,25.14v37.52h-19.13v-33.03c0-7.65-4.35-12.63-10.93-12.63-7.58,0-12.42,4.86-12.42,12.39v33.27Z" fill="#000000"/>
  <g fill="#000000">
    <path d="M404.26,74.67l-6.01,18.96h-19.93L411.28-.49h19.15l32.84,94.12h-20.26l-6.01-18.96h-32.73ZM420.63,23.58l-10.24,32.4h20.48l-10.24-32.4Z"/>
    <path d="M490.99-.49v94.12h-19.37V-.49h19.37Z"/>
  </g>
</svg>
